<svg xmlns="http://www.w3.org/2000/svg" width="96" height="96" viewBox="0 0 96 96" fill="none">
  <path d="M19 10C35 9 56 12 73 10C81 11 85 15 86 23C87 40 84 57 86 73C85 81 81 85 73 86C57 87 39 84 23 86C15 85 11 81 10 73C9 56 11 40 10 23C10 16 13 11 19 10Z" stroke="#51c993" stroke-width="2.3" stroke-linecap="round" stroke-linejoin="round" stroke-dasharray="7 4 13 3"/>
  <path d="M22 14C37 15 56 13 71 14C78 14 82 18 82 25C81 40 83 56 82 71C82 78 78 82 71 82C55 81 40 83 25 82C18 82 14 78 14 71C15 55 13 41 14 25C14 18 16 14 22 14Z" stroke="#b8efd8" stroke-width="1.3" stroke-linecap="round" stroke-linejoin="round" stroke-dasharray="19 2 9 3"/>
</svg>
